<?xml version="1.0" encoding="UTF-8" standalone="no"?>
<svg
   width="40"
   height="40"
   viewBox="0 0 40 40"
   fill="none"
   version="1.1"
   id="svg1"
   sodipodi:docname="OP.svg"
   inkscape:export-filename="..\..\Desktop\OO.svg"
   inkscape:export-xdpi="96"
   inkscape:export-ydpi="96"
   xmlns:inkscape="http://www.inkscape.org/namespaces/inkscape"
   xmlns:sodipodi="http://sodipodi.sourceforge.net/DTD/sodipodi-0.dtd"
   xmlns="http://www.w3.org/2000/svg"
   xmlns:svg="http://www.w3.org/2000/svg">
  <sodipodi:namedview
     id="namedview1"
     pagecolor="#ffffff"
     bordercolor="#000000"
     borderopacity="0.25"
     inkscape:showpageshadow="2"
     inkscape:pageopacity="0.0"
     inkscape:pagecheckerboard="0"
     inkscape:deskcolor="#d1d1d1" />
  <g
     id="611fd32ddac3c1856c306c37_optimism%20logo%20icon.svg"
     clip-path="url(#clip0_335_6)">
    <path
       id="Vector"
       d="M 20,40 C 31.0457,40 40,31.0457 40,20 40,8.95431 31.0457,0 20,0 8.95431,0 0,8.95431 0,20 0,31.0457 8.95431,40 20,40 Z"
       fill="#ff0420" />
    <path
       id="Vector_2"
       d="m 13.115411,26.260737 c -1.2063,0 -2.1946,-0.2904 -2.9651,-0.8711 -0.7602,-0.5911 -1.1404,-1.4311 -1.1404,-2.52 0,-0.2282 0.0254,-0.5082 0.076,-0.84 0.1319,-0.7466 0.3194,-1.6437 0.5627,-2.6911 0.6892,-2.8519 2.4684,-4.2778 5.3372,-4.2778 0.7805,0 1.48,0.1348 2.0983,0.4045 0.6184,0.2592 1.1049,0.6533 1.4597,1.1822 0.3548,0.5185 0.5323,1.1408 0.5323,1.8667 0,0.2177 -0.0254,0.4925 -0.0761,0.8244 -0.152,0.9229 -0.3345,1.82 -0.5474,2.6911 -0.3548,1.4207 -0.968,2.4837 -1.8399,3.1889 -0.8717,0.6948 -2.0375,1.0422 -3.4973,1.0422 z m 0.2129,-2.24 c 0.5677,0 1.0492,-0.1711 1.4446,-0.5133 0.4054,-0.3422 0.6944,-0.866 0.8667,-1.5712 0.2331,-0.9748 0.4106,-1.8251 0.5322,-2.551 0.0405,-0.2178 0.0608,-0.4408 0.0608,-0.669 0,-0.9436 -0.4815,-1.4155 -1.4445,-1.4155 -0.5677,0 -1.0543,0.1711 -1.4598,0.5134 -0.3953,0.3421 -0.6792,0.8659 -0.8515,1.5711 -0.1825,0.6948 -0.365,1.5451 -0.5474,2.551 -0.0405,0.2075 -0.0608,0.4252 -0.0608,0.6534 0,0.9541 0.4865,1.4311 1.4597,1.4311 z"
       fill="#ffffff" />
    <path
       id="Vector_2-4"
       d="m 24.715411,26.220131 c -1.2063,0 -2.1946,-0.2904 -2.9651,-0.8711 -0.7602,-0.5911 -1.1404,-1.4311 -1.1404,-2.52 0,-0.2282 0.0254,-0.5082 0.076,-0.84 0.1319,-0.7466 0.3194,-1.6437 0.5627,-2.6911 0.6892,-2.8519 2.4684,-4.2778 5.3372,-4.2778 0.7805,0 1.48,0.1348 2.0983,0.4045 0.6184,0.2592 1.1049,0.6533 1.4597,1.1822 0.3548,0.5185 0.5323,1.1408 0.5323,1.8667 0,0.2177 -0.0254,0.4925 -0.0761,0.8244 -0.152,0.9229 -0.3345,1.82 -0.5474,2.6911 -0.3548,1.4207 -0.968,2.4837 -1.8399,3.1889 -0.8717,0.6948 -2.0375,1.0422 -3.4973,1.0422 z m 0.2129,-2.24 c 0.5677,0 1.0492,-0.1711 1.4446,-0.5133 0.4054,-0.3422 0.6944,-0.866 0.8667,-1.5712 0.2331,-0.9748 0.4106,-1.8251 0.5322,-2.551 0.0405,-0.2178 0.0608,-0.4408 0.0608,-0.669 0,-0.9436 -0.4815,-1.4155 -1.4445,-1.4155 -0.5677,0 -1.0543,0.1711 -1.4598,0.5134 -0.3953,0.3421 -0.6792,0.8659 -0.8515,1.5711 -0.1825,0.6948 -0.365,1.5451 -0.5474,2.551 -0.0405,0.2075 -0.0608,0.4252 -0.0608,0.6534 0,0.9541 0.4865,1.4311 1.4597,1.4311 z"
       fill="#ffffff" />
  </g>
  <defs
     id="defs1">
    <clipPath
       id="clip0_335_6">
      <rect
         width="40"
         height="40"
         fill="#ffffff"
         id="rect1"
         x="0"
         y="0" />
    </clipPath>
  </defs>
</svg>
